<svg xmlns="http://www.w3.org/2000/svg" width="18" height="20.969" viewBox="0 0 18 20.969">
  <defs>
    <style>
      .cls-1 {
        fill: #d3cecf;
        fill-rule: evenodd;
        opacity: 0.5;
      }
    </style>
  </defs>
  <path id="Фигура_2" data-name="Фигура 2" class="cls-1" d="M692.29,733.364a0.775,0.775,0,0,0,0-1.048,0.677,0.677,0,0,0-.992,0l-3.71,3.921a3.63,3.63,0,0,0,0,4.951,3.18,3.18,0,0,0,4.684,0l8.377-8.852a5.087,5.087,0,0,0,0-6.9,4.449,4.449,0,0,0-6.547,0l-8.36,8.835a6.535,6.535,0,0,0,0,8.889,5.722,5.722,0,0,0,8.411,0l3.709-3.921a0.771,0.771,0,0,0,0-1.048,0.676,0.676,0,0,0-.992,0l-3.709,3.92a4.367,4.367,0,0,1-6.427,0,4.99,4.99,0,0,1,0-6.792l8.359-8.835a3.1,3.1,0,0,1,2.273-.993,3.133,3.133,0,0,1,2.274.993,3.465,3.465,0,0,1,.941,2.4,3.5,3.5,0,0,1-.941,2.4l-8.376,8.852a1.856,1.856,0,0,1-2.7,0,2.087,2.087,0,0,1,0-2.854Zm0,0" transform="translate(-684 -724.031)"/>
</svg>
