<svg 
 xmlns="http://www.w3.org/2000/svg"
 xmlns:xlink="http://www.w3.org/1999/xlink"
 width="41px" height="36px">
<path fill-rule="evenodd"  fill="rgb(255, 255, 255)"
 d="M39.792,31.930 L36.151,31.930 C36.170,31.761 36.202,31.601 36.202,31.426 C36.202,28.592 33.909,26.299 31.076,26.299 C28.243,26.299 25.949,28.592 25.949,31.426 C25.949,31.601 25.981,31.761 26.000,31.930 L15.189,31.930 C15.207,31.761 15.245,31.601 15.245,31.426 C15.245,28.592 12.951,26.299 10.118,26.299 C7.286,26.299 4.987,28.592 4.987,31.426 C4.987,31.601 5.024,31.761 5.036,31.930 L1.135,31.930 C0.761,31.930 0.457,31.624 0.457,31.252 L0.457,28.611 C0.457,28.319 0.693,28.083 0.985,28.083 L0.985,26.094 C0.985,25.175 1.614,24.379 2.495,24.155 L9.411,22.427 L14.548,18.296 C16.164,17.002 18.171,16.294 20.234,16.294 L29.449,16.294 C30.039,16.294 30.603,16.510 31.039,16.904 L35.574,20.992 L37.034,20.911 C38.084,20.856 38.997,21.619 39.127,22.658 L39.792,28.083 C40.172,28.083 40.476,28.387 40.470,28.767 L40.470,31.252 C40.470,31.624 40.166,31.930 39.792,31.930 ZM26.118,18.426 L20.438,18.426 C18.723,18.426 17.064,19.016 15.724,20.090 L13.263,22.068 L26.118,21.414 L26.118,18.426 ZM29.876,18.730 C29.659,18.537 29.380,18.431 29.094,18.431 L28.256,18.431 L28.256,21.309 L32.499,21.091 L29.876,18.730 ZM13.188,15.144 L2.999,15.144 C1.712,15.144 0.669,14.100 0.669,12.814 L0.669,2.622 C0.669,1.329 1.712,0.285 2.999,0.285 L13.188,0.285 C14.480,0.285 15.525,1.329 15.525,2.622 L15.525,12.814 C15.525,14.100 14.480,15.144 13.188,15.144 ZM13.678,2.759 C13.678,2.410 13.400,2.130 13.051,2.130 L3.142,2.130 C2.794,2.130 2.514,2.410 2.514,2.759 L2.514,12.670 C2.514,13.019 2.794,13.305 3.142,13.305 L13.051,13.305 C13.400,13.305 13.678,13.019 13.678,12.670 L13.678,2.759 ZM7.565,9.091 C7.298,9.091 7.050,9.079 6.862,9.054 L6.862,12.317 L4.819,12.317 L4.819,3.300 C5.453,3.193 6.347,3.114 7.608,3.114 C8.882,3.114 9.789,3.355 10.398,3.845 C10.982,4.306 11.373,5.064 11.373,5.960 C11.373,6.854 11.076,7.613 10.535,8.128 C9.834,8.793 8.789,9.091 7.565,9.091 ZM7.713,4.672 C7.292,4.672 7.012,4.709 6.862,4.754 L6.862,7.451 C7.037,7.493 7.254,7.506 7.553,7.506 C8.652,7.506 9.329,6.948 9.329,6.016 C9.329,5.175 8.746,4.672 7.713,4.672 ZM10.118,27.349 C12.367,27.349 14.195,29.170 14.195,31.426 C14.195,33.675 12.367,35.503 10.118,35.503 C7.869,35.503 6.043,33.675 6.043,31.426 C6.043,29.170 7.863,27.349 10.118,27.349 ZM10.118,32.657 C10.796,32.657 11.349,32.103 11.349,31.426 C11.349,30.749 10.796,30.196 10.118,30.196 C9.441,30.196 8.889,30.749 8.889,31.426 C8.889,32.103 9.441,32.657 10.118,32.657 ZM31.082,27.349 C33.325,27.349 35.151,29.170 35.151,31.426 C35.151,33.675 33.331,35.503 31.082,35.503 C28.827,35.503 27.001,33.675 27.001,31.426 C27.001,29.170 28.827,27.349 31.082,27.349 ZM31.082,32.657 C31.753,32.657 32.305,32.103 32.305,31.426 C32.305,30.749 31.753,30.196 31.082,30.196 C30.398,30.196 29.846,30.749 29.846,31.426 C29.846,32.103 30.398,32.657 31.082,32.657 Z"/>
</svg>