<svg xmlns="http://www.w3.org/2000/svg" xmlns:xlink="http://www.w3.org/1999/xlink" width="276" height="30" viewBox="0 0 276 30">
  <defs>
    <linearGradient id="a" x1="138" y1="2" x2="138" y2="27.938" gradientUnits="userSpaceOnUse">
      <stop offset="0" stop-color="#f2f2f2"/>
      <stop offset="1" stop-color="#cacaca"/>
    </linearGradient>
    <linearGradient id="b" x1="134.641" y1="2.063" x2="134.641" y2="28" xlink:href="#a"/>
  </defs>
  <path data-name="AUTO ROOM" d="M15.87 2h-4.016L7.515 13.432 4.324 15.06l1.828 1.91-4.159 10.969h4.016l2.474-6.475H19.24l2.474 6.475h4.016zM9.917 17.678l3.945-10.615 3.944 10.615H9.917zm43.638-4.529V2h-3.836v19.782l-2.725 2.371H40.97l-2.725-2.371V2h-3.837v11.149l-2.187 1.911 2.187 1.875v6.652l4.913 4.352h9.323l4.912-4.352v-6.652l2.187-1.875zM81.453 2H62.3v3.789h7.674v7.395l-2.183 1.876 2.187 1.875v11h3.837v-11L76 15.06l-2.187-1.875V5.789h7.638V2zm27.753 11.145V6.32L104.294 2h-9.323l-4.949 4.32v6.829l-2.187 1.911 2.187 1.875v6.687l4.948 4.317h9.323l4.912-4.317v-6.687l2.188-1.875zm-6.57 11h-6.043l-2.734-2.3V8.125l2.734-2.335h6.043l2.733 2.335v13.728zm70.145-7.183l4.267-4.883v-5.2L172.781 2h-12.693v11.184L157.9 15.06l2.188 1.911v10.968h3.836V16.97h4.7l5.486 10.969h4.159zm-1.829-3.786h-7.028V5.789h7.028l2.259 2.666v1.991zm35.643-.035V6.32L201.682 2h-9.323l-4.948 4.32v6.829l-2.187 1.911 2.187 1.875v6.687l4.948 4.317h9.323l4.913-4.317v-6.687l2.187-1.875zm-6.571 11h-6.043l-2.733-2.3V8.125l2.733-2.335h6.043l2.734 2.335v13.728zm36.763-11V6.32L231.874 2h-9.323L217.6 6.32v6.829l-2.188 1.911 2.188 1.875v6.687l4.948 4.317h9.323l4.913-4.317v-6.687l2.187-1.875zm-6.571 11h-6.043l-2.733-2.3V8.125l2.733-2.335h6.043l2.734 2.335v13.728zm41.6-11V2h-4.195l-8.032 14.613L251.56 2h-4.2v11.149l-2.187 1.911 2.187 1.875v11h3.84V8.726l6.383 11.853h4.017l6.382-11.853v19.213h3.837v-11l2.187-1.875z" fill="url(#a)" fill-rule="evenodd"/>
  <path data-name="Фигура 2" d="M135.521 11.076l3.921-3.864 3.411 3.361-3.921 3.864zm3.921-3.592l3.135 3.089-3.645 3.592-3.132-3.089 3.644-3.592m0-.545l-4.2 4.137 3.687 3.634 4.2-4.137-3.687-3.634zm-11.925 12.022l2.8-2.754 3.41 3.361-2.795 2.754zm2.8-2.482l3.134 3.089-2.523 2.482-3.13-3.089 2.519-2.482m0-.545l-3.072 3.027 3.683 3.639 3.07-3.032-3.687-3.634zm.62.611l-3.072 3.027 2.447 2.411 3.072-3.027zm7.377-2.447l3.709-3.655-2.447-2.411-3.709 3.655zm9.667-8.24l-.42.414-2.91 2.867-2.96-.782-.793-2.916 3.331-3.282a4.736 4.736 0 0 0-4.185 1.276 4.581 4.581 0 0 0 0 6.546 4.746 4.746 0 0 0 6.642 0 4.578 4.578 0 0 0 1.291-4.123zm-18.197 14.231a4.746 4.746 0 0 0-6.642 0 4.582 4.582 0 0 0 0 6.546 4.746 4.746 0 0 0 6.642 0 4.582 4.582 0 0 0 0-6.546zm-1.692 6.424l-1.152-.18-1.039.521-.824-.812-1.152-.18-.182-1.135-.825-.812.53-1.024-.183-1.135 1.04-.522.529-1.024 1.151.18 1.039-.521.824.812 1.15.181.185 1.138.824.813-.529 1.024.182 1.135-1.039.522zm-1.649-15.94l3.411-3.361 11.922 11.75-3.41 3.361zm3.411-3.089L141.5 18.962l-3.134 3.089-11.645-11.478 3.135-3.089m0-.545l-3.688 3.634 12.2 12.023 3.687-3.634-12.2-12.023zm11.579 12.634l-2.447 2.412-11.711-11.542 2.447-2.411zM129.256 3.436a4.736 4.736 0 0 0-4.185-1.276l.421.415 2.908 2.866-.793 2.917-2.959.781-3.33-3.282a4.578 4.578 0 0 0 1.3 4.124 4.746 4.746 0 0 0 6.642 0 4.581 4.581 0 0 0-.004-6.545zm16.9 16.654a4.747 4.747 0 0 0-6.643 0 4.581 4.581 0 0 0 0 6.546 4.747 4.747 0 0 0 6.643 0 4.581 4.581 0 0 0-.001-6.546zm-.784 5.773l-1.152.18-.824.813-1.039-.522-1.152.18-.529-1.024-1.039-.522.182-1.135-.529-1.023.824-.81.182-1.135 1.151-.18.825-.812 1.039.521 1.151-.179.53 1.023 1.039.522-.183 1.135.529 1.024-.824.813z" fill="url(#b)" fill-rule="evenodd"/>
</svg>