<svg xmlns="http://www.w3.org/2000/svg" width="501" height="173" viewBox="0 0 501 173">
  <defs>
    <style>
      .cls-1 {
        fill: #dedfde;
      }

      .cls-1, .cls-2, .cls-3 {
        fill-rule: evenodd;
      }

      .cls-2 {
        fill: #c32d2e;
      }

      .cls-3 {
        fill: #fff;
      }
    </style>
  </defs>
  <path id="_4_4" data-name="4 4" class="cls-1" d="M92.148,87.032v33.936H29.77L115.1,7.32H86.9L1.205,121.578v22.217H92.148V166.5h22.706V143.795h22.705V120.968h-22.7V87.032H92.148Zm361.646,0v33.936H391.415L476.742,7.32h-28.2L362.851,121.578v22.217h90.942V166.5h22.7V143.795h22.7V120.968H476.5V87.032h-22.7Z"/>
  <path id="Фигура_3" data-name="Фигура 3" class="cls-1" d="M310.251,26.749a84.5,84.5,0,1,0-119.5,119.5A84.5,84.5,0,0,0,310.251,26.749Z"/>
  <path id="Фигура_2" data-name="Фигура 2" class="cls-2" d="M328.9,86.5a78.4,78.4,0,1,0-78.4,78.4A78.4,78.4,0,0,0,328.9,86.5Z"/>
  <path id="Фигура_1" data-name="Фигура 1" class="cls-3" d="M310.6,74.249H190.387V98.658H310.6V74.249Z"/>
</svg>
