<svg xmlns="http://www.w3.org/2000/svg" width="34.094" height="32.66" viewBox="0 0 34.094 32.66">
  <defs>
    <style>
      .cls-1 {
        fill: #fff;
        fill-rule: evenodd;
      }
    </style>
  </defs>
  <path id="Фигура_5" data-name="Фигура 5" class="cls-1" d="M424.729,3186.06h-4.45a1.115,1.115,0,0,0-1.113,1.11v20.01a1.114,1.114,0,0,0,1.113,1.11h4.45a1.113,1.113,0,0,0,1.112-1.11v-20.01A1.115,1.115,0,0,0,424.729,3186.06Zm17.167,0,1.172-3.2c0.808-2.2.285-5.57-1.958-6.77a3.831,3.831,0,0,0-2.574-.38,1.856,1.856,0,0,0-1.134.85,4.6,4.6,0,0,0-.356,1.58,6.781,6.781,0,0,1-1.887,3.6c-1.727,1.68-7.093,6.54-7.093,6.54v17.79h18.542a19.2,19.2,0,0,0,3.856-20.01C450.285,3186.03,441.9,3186.06,441.9,3186.06Z" transform="translate(-419.156 -3175.62)"/>
</svg>
