<svg xmlns="http://www.w3.org/2000/svg" width="55.938" height="26.18" viewBox="0 0 55.938 26.18">
  <defs>
    <style>
      .cls-1 {
        fill: #fff;
        fill-rule: evenodd;
      }
    </style>
  </defs>
  <path id="Фигура_3" data-name="Фигура 3" class="cls-1" d="M834.955,3190H798.7v-13.1H783.986l-4.941,11.11v11.82h6.833a4.916,4.916,0,0,0,9.265,0h20.438a51.029,51.029,0,0,1,11.184,3.27,4.91,4.91,0,1,0,0-9.82h8.19V3190Zm-48.84-9.83h3.85v6.55H783.2Zm4.4,19.66a1.64,1.64,0,1,1,1.638-1.64A1.644,1.644,0,0,1,790.511,3199.83Zm29.7,0a1.64,1.64,0,1,1,1.638-1.64A1.644,1.644,0,0,1,820.213,3199.83Zm8.19-1.64a1.638,1.638,0,1,1-1.638-1.64A1.644,1.644,0,0,1,828.4,3198.19Z" transform="translate(-779.031 -3176.91)"/>
</svg>
