<svg  xmlns="http://www.w3.org/2000/svg" xmlns:xlink="http://www.w3.org/1999/xlink">
  <symbol width="32px" height="18px" id="arrow">
    <path fill-rule="evenodd"
      d="M31.998,8.986 C31.998,8.990 32.000,8.994 32.000,8.998 C32.000,8.998 32.000,8.998 32.000,8.998 C32.000,9.121 31.975,9.244 31.927,9.359 C31.878,9.475 31.808,9.580 31.719,9.667 L23.559,17.723 C23.372,17.907 23.127,17.999 22.883,17.999 C22.638,17.999 22.393,17.907 22.206,17.723 C21.833,17.354 21.833,16.756 22.206,16.387 L28.735,9.942 L0.956,9.942 C0.428,9.942 -0.000,9.520 -0.000,8.998 C-0.000,8.477 0.428,8.055 0.956,8.055 L28.736,8.055 L22.206,1.610 C21.833,1.242 21.833,0.644 22.206,0.275 C22.580,-0.094 23.185,-0.094 23.559,0.275 L31.719,8.330 C31.808,8.417 31.878,8.522 31.927,8.638 C31.973,8.749 31.996,8.867 31.998,8.986 Z" />
  </symbol>
</svg>